<?xml version="1.0" encoding="UTF-8"?>
<svg id="Layer_1" xmlns="http://www.w3.org/2000/svg" version="1.1" viewBox="0 0 720 720">
  <!-- Generator: Adobe Illustrator 30.0.0, SVG Export Plug-In . SVG Version: 2.1.1 Build 123)  -->
  <defs>
    <style>
      .st0 {
        fill: #231f20;
      }

      .st1 {
        fill: none;
        stroke: #231f20;
        stroke-width: 24px;
      }

      .st2 {
        fill: #fff;
      }

      .st3 {
        fill: #ff8300;
      }
    </style>
  </defs>
  <g>
    <g>
      <path class="st3" d="M503.95,103.31c.14-.32,14.37-13.46,21.12-33.38-11.13,5.4-21.94,11.47-33.61,15.73-8.7,3.18-17.55,5.7-26.84,6.32-7.79.51-15.32-.73-22.1-4.74-18.58-10.97-38.62-13.2-59.58-10.39-6.4.86-12.78,1.82-19.19,2.59-1.26.15-2.52.19-3.76.15h0c-1.24.04-2.49,0-3.75-.15-6.41-.77-12.8-1.73-19.2-2.59-20.95-2.81-41-.58-59.57,10.39-6.79,4.01-14.31,5.25-22.1,4.74-9.28-.62-18.14-3.14-26.84-6.32-11.67-4.26-22.48-10.33-33.61-15.73,6.75,19.92,20.98,33.06,21.12,33.38h0c-.8,2.18-2.52,3.64-4.07,5.22-.36.37-.71.74-1.03,1.12-1.37,1.62-1.2,2.44.38,3.71,5.15,4.13,10.32,8.21,15.7,12.04,1.78,1.27,3.03,1.33,4.82-.02,8.67-6.47,24.17-18.34,28.73-21.77-1.22,2.12-2.14,3.83-3.16,5.48-13.14,21.2-30.02,39.13-49.3,54.73-12.45,10.09-24.51,20.45-34.22,33.29-8.44,11.17-15.96,22.89-20.73,36.18,33.36-43.2,71.62-56.96,71.56-56.89-.03.04-.06.07-.09.11.03-.03.06-.07.09-.1-1.41,1.99-18.78,29.97-29.21,66.57,7.28-4.46,13.95-8.55,21.54-13.19-4.96,11.12-8.16,21.78-9.91,32.8-1.77,11.14-2.52,22.33-.53,34.32,5.32-7.24,10.19-13.86,15.44-21.01,2.72,13.56,5.12,26.48,10.1,39.69,2.43-12.85,10.22-16.53,21.94-14.1-2.54-5.68-4-10.98-4.37-16.54-8.56-5.13-12.95-13.32-15.51-22.43-4.59-16.36-3.29-32.52,2.96-48.29.09-.24.2-.47.32-.7.35-.69.8-1.34,1.17-2.02.4-5.32,1.16-10.53,2.7-15.53.22-.72.45-1.43.7-2.13.29-.81.6-1.61.93-2.4.75-1.77,1.61-3.51,2.62-5.22,1.06-1.79.47-3.27.03-4.88-4.39-16.13,2.42-30.73,17.36-37.12.59-.25,1.26-.31,1.88-.47,7.52-.5,14.64,1.32,21.65,3.78,12.78-5.39,26.01-8.17,41.28-6.64-10.03,3.36-17.3,8.72-22.79,16.39,5.74,5.35,10.59,11.4,13.81,18.6.97,2.16,1.83,2.25,3.71.98,4.87-3.29,10.04-6.06,16.69-8.25-6.6,8.08-11.38,16.28-13.26,25.64,4.36,1.22,9.43,4.03,13.15,10.28-5.68-.65-11.01-1.78-17.39-1.17,6.93,3.54,11.33,8.54,14.03,14.97,2.63,6.27,3.83,12.82,3.62,19.66-.16-.14-13.76-40.58-55.57-24.76-1.57.6-2.94,1.78-4.74,1.78-7.13-1.88-12.66-6.35-17.97-11.15-1.44-1.31-2.77-2.74-4.15-4.11-7.75,5.48-9.46,13.78-10.17,22.41-.52,6.32.59,12.54,1.84,18.72.26,1.28.37,2.59.55,3.88,2.43,4.21,4.8,8.47,8.59,11.69,4.85-5.54,10.59-9.78,17.7-11.96,1.12-.34,1.69-.91,2.06-2.07,7.13-22.45,37.15-20.68,40.44-17.08-20.65.04-27.27,16.87-27.19,16.86,4.42-.42,8.06.45,10.48.97-6.03,1.2-12.9,3.26-18.41,6.05,4.58,6.22,11.04,10.11,17.58,13.8,5.5,3.1,11.2,5.83,16.82,8.72h0c-2.35-5.74-2.95-11.36-2.32-16.9.04-.36.09-.73.14-1.1.33-2.3.87-4.59,1.58-6.87.21-.65.42-1.29.65-1.94.58-1.62,1.23-3.22,1.96-4.83.36,3.44.19,6.86.39,10.27.41,6.82,2.16,13.22,6.37,18.8,1.26,1.67,2.17,2.22,3.84.31,2.16-2.46,4.04-6.42,6.95-6.64,2.8-.22,5.96,2.37,8.73,4.08,4.86,3,9.68,4.42,14.48,4.4h0c4.81.03,9.63-1.39,14.49-4.4,2.77-1.71,5.93-4.3,8.72-4.08,2.92.23,4.79,4.18,6.95,6.64,1.67,1.91,2.58,1.35,3.84-.31,4.21-5.58,5.96-11.97,6.37-18.8.2-3.4.04-6.83.39-10.27.72,1.61,1.38,3.21,1.96,4.83.22.64.45,1.29.65,1.94.71,2.28,1.26,4.57,1.58,6.87.05.37.1.74.14,1.1.64,5.54.03,11.15-2.32,16.9h0c5.61-2.9,11.32-5.63,16.81-8.73,6.54-3.68,13-7.57,17.58-13.8-5.5-2.79-12.38-4.85-18.41-6.05,2.42-.52,6.06-1.39,10.47-.97.08,0-6.54-16.83-27.19-16.86,3.3-3.6,33.32-5.37,40.44,17.08.37,1.16.94,1.72,2.06,2.07,7.12,2.18,12.85,6.42,17.71,11.96,3.79-3.21,6.15-7.48,8.59-11.69.17-1.29.29-2.6.54-3.88,1.25-6.18,2.36-12.41,1.84-18.72-.71-8.63-2.42-16.93-10.18-22.41-1.38,1.37-2.7,2.8-4.14,4.11-5.31,4.8-10.84,9.27-17.98,11.15-1.8,0-3.17-1.18-4.74-1.78-41.81-15.81-55.41,24.62-55.58,24.76-.21-6.85.99-13.4,3.62-19.66,2.7-6.43,7.1-11.43,14.03-14.97-6.38-.6-11.71.52-17.39,1.17,3.71-6.25,8.79-9.06,13.15-10.28-1.88-9.36-6.66-17.56-13.26-25.64,6.65,2.19,11.81,4.96,16.68,8.25,1.88,1.27,2.75,1.18,3.71-.98,3.21-7.2,8.07-13.24,13.8-18.6-5.48-7.67-12.76-13.03-22.79-16.39,15.28-1.53,28.5,1.25,41.28,6.64,7.01-2.46,14.13-4.28,21.65-3.78.63.15,1.29.22,1.88.47,14.94,6.39,21.76,20.99,17.36,37.12-.44,1.61-1.03,3.09.03,4.88,1.01,1.7,1.87,3.44,2.62,5.22.34.8.65,1.59.93,2.4.25.7.49,1.41.71,2.13,1.54,5,2.3,10.22,2.69,15.53.38.68.82,1.33,1.18,2.02.12.23.22.46.32.7,6.26,15.77,7.55,31.93,2.97,48.29-2.56,9.12-6.95,17.3-15.52,22.43-.37,5.57-1.83,10.86-4.37,16.54,11.72-2.43,19.5,1.24,21.94,14.1,4.98-13.2,7.38-26.13,10.1-39.69,5.26,7.15,10.13,13.77,15.45,21.01,1.99-11.98,1.24-23.17-.53-34.32-1.75-11.03-4.95-21.68-9.91-32.8,7.59,4.65,14.26,8.73,21.54,13.19-10.43-36.61-27.8-64.58-29.21-66.57.03.03.06.07.1.1-.03-.04-.06-.07-.1-.11-.06-.06,38.2,13.69,71.56,56.89-4.77-13.29-12.29-25-20.73-36.18-9.71-12.84-21.76-23.2-34.22-33.29-19.28-15.6-36.15-33.53-49.3-54.73-1.03-1.65-1.95-3.37-3.16-5.48,4.56,3.42,20.06,15.29,28.73,21.77,1.8,1.34,3.04,1.29,4.83.02,5.37-3.83,10.55-7.91,15.69-12.04,1.58-1.27,1.75-2.09.38-3.71-.33-.39-.68-.76-1.03-1.12-1.56-1.58-3.27-3.04-4.07-5.22h0ZM356.26,122.03c-5.22-7.28-12.91-10.72-21.1-13.1-16.59-4.82-33.52-5.55-50.63-3.76,24.01-10.35,48.35-8.73,72.94-2.15-16.45-14.69-36.71-12.4-57.25-12.52,4.55-2.34,8.58-3.74,12.78-4.59,14.88-2.97,29.38-.76,43.74,3.25,1.11.31,2.14.67,3.25.64h0c1.11.04,2.14-.33,3.25-.64,14.36-4.01,28.86-6.22,43.74-3.25,4.22.84,8.24,2.25,12.79,4.59-20.54.12-40.81-2.16-57.26,12.52,24.6-6.59,48.93-8.2,72.94,2.15-17.1-1.78-34.04-1.06-50.62,3.76-8.18,2.38-15.88,5.82-21.1,13.1-.45.63-.83,1.31-1.64,2.62,26.94-9.5,53.12-10.98,78.96,1.44-8.89-.91-17.83-.95-26.73-.54-13.21.61-26.24,2.37-38.47,7.89-2.64,1.18-6.62,2.18-7.04,4.51-.43,2.33,3.8,3.27,5.89,4.95,5.24,4.23,8.19,7.32,10.8,12.29-2.94-1.9-5.31-3.4-7.63-4.95-5.94-3.96-11.89-5.98-17.86-5.96h0c-5.96-.02-11.91,1.99-17.86,5.96-2.33,1.55-4.7,3.05-7.63,4.95,2.61-4.97,5.55-8.06,10.8-12.29,2.08-1.68,6.32-2.62,5.89-4.95-.43-2.33-4.41-3.32-7.04-4.51-12.23-5.52-25.26-7.28-38.47-7.89-8.9-.41-17.84-.37-26.73.54,25.84-12.42,52.02-10.94,78.96-1.44-.82-1.31-1.19-1.99-1.64-2.62Z"/>
      <path class="st3" d="M367.85,386.22c-2.74.06-3.73.86-4.11,3.81-.67,5.17-1.34,10.54-3.71,16.45l-.03.07-.02-.07c-2.36-5.91-3.03-11.29-3.71-16.45-.39-2.95-1.36-3.75-4.11-3.81-4.37-.1-7.06.55-11.39.73-1.51.06-2.19.69-2.01,2.19,1.14,9.8,4.07,18.85,11.61,25.68,2.99,2.7,6.38,4.08,9.64,4.14h0c3.27-.06,6.66-1.44,9.64-4.14,7.54-6.83,10.47-15.89,11.61-25.68.17-1.51-.51-2.13-2.01-2.19-4.34-.18-7.03-.83-11.4-.73Z"/>
    </g>
    <g>
      <path class="st2" d="M431.42,194.71c-3.97.69-6.34-1.02-9-6.54-1.91.97-3.18,2.66-4.63,4.12-4.05,4.11-3.88,4.93,1.41,7.6,10.3,5.2,23.42.88,28.38-9.34,1.67-3.46,1.91-6.97-.79-9.95-.28-.31-.57-.62-.87-.9-1.42-1.36-3.03-2.36-4.93-2.37-.9,0-1.86.2-2.89.71-1.44.65-2.92,1.26-4.34,1.96-.2.1-.4.2-.6.31-1.68.9-3.74,1.65-2.67,4.33.95,2.36,2.82,2.86,5.06,2.6.64-.07,1.24-.35,1.87-.53-.26,4.76-2.2,7.34-6,8Z"/>
      <path class="st2" d="M326.37,281.05c-1.71-1.08-3.27-2.35-4.68-3.77-1.66-1.67-3.13-3.53-4.47-5.52-5.62-2.89-11.32-5.62-16.82-8.72-6.54-3.68-13-7.57-17.58-13.8-11.38,5.26-13.32,15.61-4.54,24.43,4.14,4.16,9.18,7.03,14.43,9.54,2.51,1.2,5.06,2.34,8.29,3.83-9.68.12-22.81-6.44-37.7-18.48-.74,2.05-1.4,4.01-1.54,6.14-.51,7.9,3.65,13.2,9.72,17.37,8.19,5.63,17.58,8.15,27.14,10.16,2.19.46,4.42.71,6.61,1.21.12.03.24.05.37.08,1.86.33,3.94.07,5.36,1.78h0c-13.39.7-26.5-1.11-40.13-4.46-.98-.24-1.95-.48-2.93-.74-.98-.25-1.96-.52-2.95-.79,5.13,7.99,11.31,12.69,18.88,15.53,10.7,4.02,21.84,4.56,33.12,3.61,2.54-.22,5.09-.32,7.62-.48-9.54,5.05-19.88,6.35-30.3,7.43.28,1,1.11,1.14,1.77,1.5,11.03,6.03,22.37,5.86,33.98,1.88,8.41-2.89,16.52-6.9,25.84-6.97-.26-1.41-.5-2.55-.68-3.71-2.58-16.37-10.7-28.62-26.13-35.59-.94-.43-1.85-.92-2.7-1.45Z"/>
      <path class="st2" d="M249.72,284.96c-.42-10.37,2.1-19.91,8.02-28.5-3.79-3.21-6.16-7.48-8.59-11.69-7.35-9.87-10.07-21.2-10.49-33.26-.37.68-.82,1.33-1.17,2.02-.12.23-.23.46-.32.7-6.26,15.77-7.55,31.93-2.96,48.29,2.56,9.12,6.95,17.3,15.51,22.43Z"/>
      <path class="st2" d="M196.84,128.82c.02.07.05.13.07.19.95,2.8,2.03,5.59,3.25,8.36,2.68,6.04,2.66,7.24,5,5.88.3-.17.64-.39,1.03-.64.05-.03.09-.06.14-.09.45-.29.95-.63,1.54-1,.51-.32,1.07-.67,1.7-1.05.23-.14.47-.28.73-.43,1.65-.96,1.76-1.73.6-3.31-5.41-7.29-8.6-15.62-10.65-24.37-1.34-5.74-2.67-11.53-2.68-18.22.33.37.67.74,1.01,1.09.34.35.68.69,1.03,1.02.34.33.69.64,1.04.94.28.24.57.48.86.71.54.43,1.09.83,1.65,1.21,3.89,2.64,8.14,3.97,12.92,4.21-.14-.32-14.37-13.46-21.12-33.38-4.61,18.18-4.83,38.77,1.88,58.8,0,.02.02.05.03.08Z"/>
      <path class="st2" d="M262.61,169.63c5.77-2.65,11.73-3.62,18.05-2.39,13.26,2.59,22.43,11.06,30.42,21.15.54.68,1.09,1.31,1.65,1.89,1.4,1.44,2.84,2.56,4.27,3.34,0,0,4.09-.43,7.71.32.33.07.66.15.99.24.1.03.19.06.29.09t0,0c1.88-9.36,6.66-17.56,13.26-25.64-6.65,2.19-11.81,4.96-16.69,8.25-1.88,1.27-2.75,1.18-3.71-.98-3.21-7.2-8.07-13.24-13.81-18.6-1.77,2.25-3.55,4.49-5.52,7-6.6-6.73-15.61-8.68-23.45-9.61,3.06-3.35,6.98-4.94,10.48-7.14-7.01-2.46-14.12-4.28-21.65-3.78-5.74,8.3-9.08,17.11-5.95,27.58,1.31-.62,2.48-1.17,3.66-1.72Z"/>
      <path class="st2" d="M261.1,203.88c5.31,4.8,10.85,9.27,17.97,11.15-.01-1.98.06-3.89.57-5.85.1-.4.25-.8.4-1.17.41-.99.89-1.78.89-1.78,0,0-1.84-.86-2.86-1.39-2.92-1.53-5.79-3.44-7.67-6.12-2.55-3.63-5.51-3.28-8.85-1.83-1.66.72-2.9,1.34-4.61,2.87,1.38,1.37,2.71,2.8,4.15,4.11Z"/>
      <path class="st2" d="M289.52,184.64c1.08-2.68-.98-3.43-2.66-4.33-.2-.11-.4-.21-.6-.31-1.41-.71-2.89-1.31-4.34-1.96-1.03-.5-1.99-.71-2.89-.71-1.89.01-3.51,1.01-4.93,2.37-.3.28-.59.59-.88.9-2.7,2.98-2.46,6.49-.79,9.95,4.94,10.23,18.07,14.54,28.37,9.34,5.29-2.67,5.47-3.49,1.42-7.6-1.44-1.46-2.72-3.15-4.63-4.12-2.67,5.52-5.04,7.23-9.01,6.54-3.8-.66-5.73-3.25-5.99-8,.62.18,1.23.46,1.87.53,2.25.26,4.12-.24,5.06-2.6Z"/>
      <path class="st2" d="M423.94,326.9c.66-.36,1.49-.5,1.76-1.5-10.42-1.09-20.75-2.39-30.3-7.43,2.54.16,5.09.26,7.62.48,11.28.95,22.41.41,33.12-3.61,7.57-2.84,13.76-7.54,18.88-15.53-.98.27-1.97.53-2.95.79-.98.26-1.96.5-2.93.74-13.62,3.35-26.73,5.16-40.13,4.46h0c1.42-1.71,3.49-1.46,5.36-1.78.13-.02.25-.05.37-.08,2.18-.5,4.41-.75,6.61-1.21,9.56-2,18.95-4.52,27.14-10.16,6.06-4.17,10.23-9.47,9.72-17.37-.14-2.13-.8-4.08-1.54-6.14-14.89,12.04-28.02,18.6-37.7,18.48,3.24-1.49,5.77-2.62,8.29-3.83,5.25-2.51,10.29-5.39,14.43-9.54,8.79-8.82,6.84-19.17-4.54-24.43-4.59,6.22-11.04,10.11-17.58,13.8-5.5,3.1-11.2,5.83-16.81,8.72h0c-.04.05-.07.1-.11.16-1.32,1.93-2.75,3.75-4.37,5.37-1.41,1.43-2.96,2.7-4.68,3.77-.86.53-1.76,1.02-2.71,1.45-15.43,6.97-23.54,19.22-26.12,35.59-.18,1.16-.42,2.3-.68,3.71,9.32.07,17.43,4.09,25.84,6.97,11.61,3.98,22.95,4.14,33.98-1.88Z"/>
      <path class="st2" d="M470.27,284.96c8.57-5.13,12.96-13.32,15.52-22.43,4.59-16.36,3.29-32.52-2.97-48.29-.1-.24-.2-.47-.32-.7-.36-.69-.8-1.34-1.18-2.02-.41,12.06-3.14,23.39-10.49,33.26-2.43,4.21-4.8,8.47-8.59,11.69,5.92,8.59,8.44,18.13,8.02,28.5Z"/>
      <path class="st2" d="M518.51,97.89c.29-.23.58-.47.86-.71.35-.3.7-.62,1.04-.94.35-.33.69-.66,1.03-1.02.34-.35.67-.71,1-1.09-.01,6.69-1.33,12.48-2.67,18.22-2.06,8.75-5.25,17.08-10.66,24.37-1.17,1.58-1.06,2.35.59,3.31.25.15.5.29.73.43.63.38,1.19.73,1.69,1.05.59.38,1.1.71,1.55,1,.05.03.09.06.14.09.38.25.72.47,1.03.64,2.34,1.36,2.32.16,4.99-5.88,1.22-2.77,2.31-5.56,3.25-8.36.02-.06.05-.13.07-.19.01-.03.02-.06.03-.08,6.71-20.03,6.49-40.62,1.88-58.8-6.75,19.92-20.98,33.06-21.12,33.38,4.78-.24,9.03-1.57,12.92-4.21.56-.38,1.1-.78,1.64-1.21Z"/>
      <path class="st2" d="M394.02,194.27c.1-.03.19-.06.29-.09.33-.09.65-.17.99-.24,3.62-.75,7.71-.32,7.71-.32,1.43-.78,2.87-1.9,4.27-3.34.56-.58,1.11-1.21,1.65-1.89,7.98-10.09,17.15-18.56,30.41-21.15,6.32-1.24,12.29-.26,18.05,2.39,1.17.54,2.34,1.1,3.66,1.72,3.13-10.47-.21-19.28-5.95-27.58-7.52-.5-14.64,1.32-21.65,3.78,3.5,2.2,7.42,3.79,10.48,7.14-7.85.93-16.86,2.88-23.45,9.61-1.97-2.5-3.74-4.75-5.52-7-5.74,5.35-10.59,11.4-13.8,18.6-.97,2.16-1.84,2.25-3.71.98-4.87-3.29-10.04-6.06-16.68-8.25,6.6,8.08,11.38,16.28,13.26,25.64h0Z"/>
      <path class="st2" d="M449.58,198.72c-1.88,2.68-4.74,4.58-7.67,6.12-1.01.53-2.85,1.39-2.85,1.39,0,0,.48.79.89,1.78.16.37.3.77.4,1.17.51,1.96.59,3.87.57,5.85,7.13-1.88,12.66-6.35,17.98-11.15,1.44-1.31,2.77-2.74,4.14-4.11-1.7-1.53-2.95-2.15-4.61-2.87-3.33-1.45-6.29-1.8-8.85,1.83Z"/>
      <path class="st2" d="M573,319.23c-.13-32.11-5-61.86-23.67-88.34,3.69.06,8.14.68,11.63,1.27,3.38.58,5.87,1.13,5.87,1.13-33.36-43.2-71.61-56.96-71.56-56.89.03.04.06.07.1.11,22.06,24.84,42.54,64.48,47,93.28-6.25-6.59-13.38-12.63-21.36-17.45,5.86,23.74,2.63,46.89-1.64,70.85-5.02-7.92-9.29-15.31-15.5-22.31-4.02,22.44-12.07,42.62-25.51,60.49.62-6.31,1.51-12.52,1.29-18.83-.13-3.58-.6-7.11-1.75-10.48-2.65-7.74-8.7-10.09-15.93-6.22-6.66,3.56-11.01,9.35-14.63,15.72-7.06,12.42-9.63,24.59-9.61,44.48-2.67-.53-4.79-2.13-6.6-3.74-2.94-2.62-4.34-1.28-5.95,1.34-4.35,7.04-6.14,14.78-6.52,22.9-.37,7.91-.41,15.84-.85,23.75-.4,7.2-2.86,13.57-8.25,18.68-4.4,4.17-8.85,8.22-14.53,11.84,0-1.64-.24-2.81.04-3.83,1.29-4.73-1.16-6.33-5.28-7.53-10.08-2.94-20-4.25-29.78-3.96h0c-9.77-.29-19.69,1.02-29.77,3.96-4.12,1.2-6.58,2.79-5.29,7.53.28,1.02.04,2.19.04,3.83-5.68-3.62-10.14-7.67-14.54-11.84-5.39-5.1-7.85-11.48-8.25-18.68-.44-7.91-.47-15.84-.85-23.75-.38-8.12-2.17-15.87-6.51-22.9-1.62-2.62-3.02-3.96-5.96-1.34-1.81,1.62-3.93,3.21-6.6,3.74.02-19.88-2.56-32.06-9.61-44.48-3.62-6.37-7.97-12.16-14.63-15.72-7.24-3.87-13.28-1.52-15.93,6.22-1.16,3.37-1.63,6.9-1.76,10.48-.22,6.31.68,12.53,1.29,18.83-13.44-17.87-21.48-38.05-25.5-60.49-6.21,7-10.49,14.39-15.5,22.31-4.28-23.95-7.5-47.11-1.64-70.85-7.98,4.82-15.11,10.86-21.37,17.45,4.47-28.8,24.94-68.44,47.01-93.28.03-.04.06-.07.09-.11.06-.06-38.2,13.69-71.56,56.89,0,0,2.48-.55,5.87-1.13,3.49-.59,7.94-1.21,11.63-1.27-18.66,26.47-23.53,56.23-23.67,88.34,5.1-5.94,9.05-11.5,14.48-16.15-.63,30.1,1.37,59.5,9.55,89.03,4.08-9.34,7.56-18.2,13.26-26.36,9.34,38.51,18.72,64.17,26.13,71.49,1.03-2.16,1.96-4.32,3.06-6.39,7.03-13.27,16.72-23.37,32.25-26.02,16.71-2.85,33.66,7.19,37.09,21.55,2.84,11.94,9.97,21.74,20.82,28.22,1.86,1.11,1.6,2.1,1.16,3.83-4.7,18.33,7.21,33.22,21.54,38.33-1.05-6.44-1.73-12.83.5-20.03.72,2.37,1.13,3.88,1.63,5.35,2.98,8.73,8.29,15.51,16.73,19.57,4.49,2.16,9.04,4.23,13.53,6.39.04.02.08.04.12.05.4.18.78.27,1.15.27h0c.42,0,.83-.11,1.28-.32,4.5-2.16,9.04-4.23,13.53-6.39,8.44-4.06,13.75-10.84,16.73-19.57.5-1.47.91-2.98,1.63-5.35,2.23,7.2,1.56,13.6.5,20.03,14.32-5.11,26.24-20,21.54-38.33-.45-1.73-.7-2.72,1.15-3.83,10.85-6.48,17.99-16.28,20.83-28.22,3.42-14.36,20.37-24.4,37.09-21.55,15.53,2.65,25.21,12.75,32.25,26.02,1.1,2.07,2.03,4.24,3.06,6.39,7.4-7.32,16.79-32.98,26.13-71.49,5.7,8.15,9.17,17.02,13.26,26.36,8.18-29.53,10.18-58.93,9.55-89.03,5.43,4.65,9.38,10.21,14.48,16.15Z"/>
      <path class="st2" d="M313.49,338.9c-2.41-.57-4.87-.96-7.43-.64-3.69.47-5.39,1.97-5.39,6.07.03,15.71,5.1,29.81,13.15,43.13-.45-13.31,1.31-26.25,5.16-38.91,2.05-6.75,1.48-8-5.48-9.65Z"/>
      <path class="st2" d="M325.72,397.67c-4.44,13.41-6.08,25.96-1.7,38.74,1.13,3.32,3.23,5.86,7.03,6.01,3.02.12,5.39-1.44,6.67-4.13,1.55-3.28,2.62-6.81.1-10.08-4.84-6.26-7.73-13.38-9.74-20.93-.77-2.89-1.43-5.79-2.36-9.61Z"/>
      <path class="st2" d="M371.41,426.64s-3.91,3.72-4.14,3.69c-.61-.07-2.33-2.25-2.33-2.25,0,0-2.63-.47-4.94-.36h0c-2.3-.11-4.94.36-4.94.36,0,0-1.71,2.17-2.33,2.25-.22.03-4.13-3.69-4.13-3.69,0,0-.85.71-1.36,1.16-1.7,1.49-2.8,3.21-2.23,5.51.49,2,2.15,1.43,3.57,1.34.33-.02.65-.04.98-.07.31-.02.62-.05.92-.07.33-.03.66-.06,1-.09,2.84-.24,5.68-.52,8.52-.55h0c2.85.03,5.69.31,8.53.55.33.03.66.06.99.09.31.02.62.05.92.07.33.02.66.05.98.07,1.42.09,3.08.66,3.57-1.34.57-2.3-.53-4.02-2.23-5.51-.5-.45-1.35-1.16-1.35-1.16Z"/>
      <path class="st2" d="M334.26,339.58c-.71,4.28.32,8.29,1.45,12.61,2.69-2.09,4.11-4.75,5.32-7.49.9-2.05,1.84-2.62,3.53-.83.72.77,2.17,2.67,2.17,2.67,0,0,1.5-1.67,2.27-2.68,1.36-1.77,3.01-2.1,4.59-.3.68.78,2.11,2.78,2.11,2.78,0,0,2.68-3.78,4.25-3.73h.09c1.58-.05,4.26,3.73,4.26,3.73,0,0,1.43-2,2.11-2.78,1.58-1.8,3.22-1.47,4.59.3.77,1,2.27,2.68,2.27,2.68,0,0,1.45-1.89,2.17-2.67,1.69-1.79,2.63-1.23,3.53.83,1.2,2.74,2.63,5.41,5.31,7.49,1.14-4.33,2.17-8.33,1.45-12.61-.61-3.6-2.75-5.08-6.15-4.43-6.54,1.24-13.06,1.87-19.59,1.87h0c-6.53,0-13.05-.62-19.59-1.87-3.39-.65-5.54.83-6.15,4.43Z"/>
      <path class="st2" d="M419.32,344.33c.01-4.1-1.69-5.6-5.39-6.07-2.56-.32-5.02.07-7.43.64-6.96,1.64-7.54,2.89-5.49,9.65,3.84,12.65,5.6,25.6,5.16,38.91,8.05-13.32,13.12-27.42,13.14-43.13Z"/>
      <path class="st2" d="M382.19,428.21c-2.52,3.27-1.46,6.8.1,10.08,1.28,2.69,3.65,4.24,6.67,4.13,3.8-.15,5.89-2.69,7.03-6.01,4.38-12.78,2.75-25.32-1.7-38.74-.93,3.82-1.58,6.72-2.35,9.61-2.02,7.55-4.91,14.67-9.75,20.93Z"/>
    </g>
    <g>
      <path class="st0" d="M248.61,240.89c-1.25-6.18-2.36-12.41-1.84-18.72.71-8.63,2.42-16.93,10.17-22.41,1.71-1.53,2.96-2.15,4.61-2.87,3.33-1.45,6.29-1.8,8.85,1.83,1.88,2.68,4.75,4.58,7.67,6.12,1.02.53,2.86,1.39,2.86,1.39,0,0-.48.79-.89,1.78-.07.36-.2.74-.4,1.17-.51,1.96-.58,3.87-.57,5.85,1.8,0,3.17-1.18,4.74-1.78,41.81-15.81,55.41,24.62,55.57,24.76.22-6.85-.99-13.4-3.62-19.66-2.7-6.43-7.1-11.43-14.03-14.97,6.38-.6,11.71.52,17.39,1.17-3.72-6.25-8.79-9.06-13.15-10.28t0,0c-.1-.03-.19-.06-.29-.09-.33-.09-.66-.17-.99-.24-3.62-.75-7.71-.32-7.71-.32-1.43-.78-2.87-1.9-4.27-3.34-.56-.56-1.12-1.19-1.65-1.89-7.99-10.09-17.15-18.56-30.42-21.15-6.32-1.24-12.28-.26-18.05,2.39-1.18.54-2.35,1.1-3.66,1.72-3.13-10.47.21-19.28,5.95-27.58-.63.15-1.3.22-1.88.47-14.94,6.39-21.75,20.99-17.36,37.12.44,1.61,1.03,3.09-.03,4.88-1.01,1.7-1.87,3.44-2.62,5.22-.34.8-.65,1.59-.93,2.4-.25.7-.49,1.41-.7,2.13-1.54,5-2.31,10.22-2.7,15.53.42,12.06,3.14,23.39,10.49,33.26-.18-1.29-.29-2.6-.55-3.88ZM273.21,180.6c.29-.31.58-.62.88-.9,1.42-1.36,3.04-2.36,4.93-2.37.9,0,1.86.2,2.89.71,1.44.65,2.92,1.26,4.33,1.96.21.1.41.2.6.31,1.68.9,3.74,1.65,2.66,4.33-.94,2.36-2.81,2.86-5.06,2.6-.63-.07-1.24-.35-1.87-.53.26,4.76,2.19,7.34,5.99,8,3.97.69,6.34-1.02,9.01-6.54,1.91.97,3.18,2.66,4.63,4.12,4.05,4.11,3.87,4.93-1.42,7.6-10.3,5.2-23.42.88-28.37-9.34-1.68-3.46-1.92-6.97.79-9.95Z"/>
      <path class="st0" d="M276.07,154.69c7.85.93,16.86,2.88,23.45,9.61,1.97-2.5,3.75-4.75,5.52-7,5.49-7.67,12.77-13.03,22.79-16.39-15.28-1.53-28.5,1.25-41.28,6.64-3.5,2.2-7.42,3.79-10.48,7.14Z"/>
      <path class="st0" d="M478.63,195.98c-.22-.72-.46-1.43-.71-2.13-.28-.81-.59-1.61-.93-2.4-.75-1.77-1.61-3.51-2.62-5.22-1.05-1.79-.47-3.27-.03-4.88,4.39-16.13-2.42-30.73-17.36-37.12-.59-.25-1.26-.31-1.88-.47,5.74,8.3,9.08,17.11,5.95,27.58-1.32-.62-2.48-1.17-3.66-1.72-5.77-2.65-11.73-3.62-18.05-2.39-13.26,2.59-22.43,11.06-30.41,21.15-.53.7-1.09,1.33-1.65,1.89-1.4,1.44-2.84,2.56-4.27,3.34,0,0-4.09-.43-7.71.32-.33.07-.66.15-.99.24-.1.03-.19.06-.29.09h0c-4.36,1.22-9.44,4.02-13.15,10.28,5.68-.65,11.01-1.78,17.39-1.17-6.93,3.54-11.33,8.54-14.03,14.97-2.63,6.27-3.83,12.82-3.62,19.66.17-.14,13.76-40.58,55.58-24.76,1.57.6,2.94,1.78,4.74,1.78.02-1.98-.06-3.89-.57-5.85-.19-.42-.33-.81-.4-1.17-.41-.99-.89-1.78-.89-1.78,0,0,1.84-.86,2.85-1.39,2.92-1.53,5.79-3.44,7.67-6.12,2.56-3.63,5.52-3.28,8.85-1.83,1.66.72,2.91,1.34,4.61,2.87,7.76,5.48,9.47,13.78,10.18,22.41.53,6.32-.59,12.54-1.84,18.72-.26,1.28-.37,2.59-.54,3.88,7.35-9.87,10.07-21.2,10.49-33.26-.39-5.32-1.16-10.53-2.69-15.53ZM447.57,190.55c-4.95,10.23-18.07,14.54-28.38,9.34-5.29-2.67-5.46-3.49-1.41-7.6,1.44-1.46,2.72-3.15,4.63-4.12,2.66,5.52,5.04,7.23,9,6.54,3.8-.66,5.74-3.25,6-8-.63.18-1.24.46-1.87.53-2.25.26-4.11-.24-5.06-2.6-1.07-2.68.99-3.43,2.67-4.33.2-.11.4-.21.6-.31,1.42-.71,2.9-1.31,4.34-1.96,1.03-.5,1.99-.71,2.89-.71,1.9.01,3.51,1.01,4.93,2.37.3.28.59.59.87.9,2.71,2.98,2.46,6.49.79,9.95Z"/>
      <path class="st0" d="M443.93,154.69c-3.06-3.35-6.98-4.94-10.48-7.14-12.78-5.39-26.01-8.17-41.28-6.64,10.03,3.36,17.3,8.72,22.79,16.39,1.78,2.25,3.55,4.49,5.52,7,6.6-6.73,15.6-8.68,23.45-9.61Z"/>
      <path class="st0" d="M588.6,230.61c-10.71-28.41-27.94-52.12-51.53-71.18-2.82-2.28-3.48-4.04-2.11-7.73,12.33-33.48,12.04-67.27,1.81-101.22-.7-2.33-1.45-2.28-3.45-1.33-14.47,6.88-28.64,14.41-43.89,19.58-15.72,5.34-30.83,5.61-46.3-1.88-18.77-9.09-39.08-11.23-59.78-9.84-6.98.47-13.89,1.44-20.78,2.62-.86.14-1.71.22-2.56.25h0s-1.7-.1-2.56-.25c-6.89-1.18-13.8-2.15-20.78-2.62-20.7-1.39-41,.76-59.78,9.84-15.47,7.49-30.58,7.22-46.3,1.88-15.24-5.18-29.41-12.71-43.89-19.58-2-.95-2.75-1.01-3.45,1.33-10.23,33.95-10.51,67.74,1.81,101.22,1.37,3.7.71,5.45-2.12,7.73-23.59,19.06-40.82,42.77-51.53,71.18-4.02,10.67-7.37,21.54-10.07,33.11,5.81-2.84,10.83-6.08,16.81-8.37-11.96,37.15-15.35,74.42-8.94,113.48,5.08-8.05,9.88-14.91,16.18-21.62,1.41,17.42,2.85,34.17,6.14,50.7,3.29,16.55,7.9,32.65,15.22,48.93,3.62-12.01,7.3-22.85,12.41-33.86,8.68,23.75,20.1,45.3,36.03,64.72,1.61-6.12,3.02-11.68,4.55-17.21,1.55-5.58,3.66-10.96,6.26-16.15,3.29-6.55,7.16-12.62,13.32-16.89,8.85-6.14,19.74-3.97,25.36,5.21,1.77,2.89,2.97,6.14,4.26,9.29,3.12,7.6,6.59,14.98,12.95,20.5,1.62,1.41,2.3,2.9,2.39,5.05.46,11.57,3.36,22.38,10.88,31.52,7.27,8.83,16.91,14.22,27.47,17.91,10.53,3.67,21.39,6.43,31.81,10.35,2.04.77,3.81,1.22,5.57,1.26h0c1.76-.04,3.53-.5,5.57-1.26,10.43-3.92,21.29-6.68,31.81-10.35,10.57-3.69,20.2-9.08,27.48-17.91,7.52-9.14,10.41-19.94,10.87-31.52.08-2.15.77-3.64,2.39-5.05,6.35-5.52,9.83-12.9,12.94-20.5,1.29-3.15,2.5-6.41,4.26-9.29,5.62-9.18,16.52-11.35,25.37-5.21,6.15,4.26,10.04,10.34,13.31,16.89,2.6,5.19,4.71,10.57,6.26,16.15,1.54,5.52,2.95,11.09,4.56,17.21,15.94-19.43,27.35-40.97,36.03-64.72,5.11,11.01,8.79,21.85,12.41,33.86,7.33-16.28,11.93-32.38,15.22-48.93,3.29-16.52,4.72-33.28,6.13-50.7,6.31,6.71,11.11,13.58,16.19,21.62,6.4-39.06,3.02-76.33-8.94-113.48,5.98,2.3,11,5.53,16.81,8.37-2.71-11.57-6.05-22.44-10.07-33.11ZM558.53,303.08c.63,30.1-1.37,59.5-9.55,89.03-4.08-9.34-7.56-18.2-13.26-26.36-9.34,38.51-18.72,64.17-26.13,71.49-1.03-2.16-1.96-4.32-3.06-6.39-7.03-13.27-16.71-23.37-32.25-26.02-16.71-2.85-33.67,7.19-37.09,21.55-2.84,11.94-9.98,21.74-20.83,28.22-1.86,1.11-1.6,2.1-1.15,3.83,4.71,18.33-7.21,33.22-21.54,38.33,1.05-6.44,1.73-12.83-.5-20.03-.72,2.37-1.13,3.88-1.63,5.35-2.98,8.73-8.29,15.51-16.73,19.57-4.49,2.16-9.04,4.23-13.53,6.39-.45.22-.86.32-1.28.32h0c-.37,0-.75-.09-1.15-.27-.04-.01-.09-.03-.12-.05-4.49-2.16-9.04-4.23-13.53-6.39-8.45-4.06-13.75-10.84-16.73-19.57-.51-1.47-.91-2.98-1.63-5.35-2.23,7.2-1.55,13.6-.5,20.03-14.32-5.11-26.24-20-21.54-38.33.44-1.73.71-2.72-1.16-3.83-10.85-6.48-17.98-16.28-20.82-28.22-3.42-14.36-20.38-24.4-37.09-21.55-15.54,2.65-25.22,12.75-32.25,26.02-1.1,2.07-2.03,4.24-3.06,6.39-7.41-7.32-16.79-32.98-26.13-71.49-5.7,8.15-9.17,17.02-13.26,26.36-8.18-29.53-10.18-58.93-9.55-89.03-5.43,4.65-9.38,10.21-14.48,16.15.14-32.11,5-61.86,23.67-88.34-3.69.06-8.14.68-11.63,1.27-3.38.58-5.87,1.13-5.87,1.13,4.77-13.29,12.29-25,20.73-36.18,9.71-12.84,21.77-23.2,34.22-33.29,19.27-15.6,36.16-33.53,49.3-54.73,1.02-1.65,1.94-3.37,3.16-5.48-4.56,3.42-20.06,15.29-28.73,21.77-1.8,1.34-3.04,1.29-4.82.02-5.38-3.83-10.55-7.91-15.7-12.04-1.58-1.27-1.75-2.09-.38-3.71.32-.39.68-.76,1.03-1.12,1.55-1.58,3.27-3.04,4.07-5.22-4.77-.24-9.03-1.57-12.92-4.21-.56-.38-1.11-.78-1.65-1.21-.28-.23-.57-.47-.86-.71-.35-.3-.7-.62-1.04-.94-.34-.33-.69-.66-1.03-1.02-.34-.35-.68-.71-1.01-1.09.01,6.69,1.34,12.48,2.68,18.22,2.05,8.75,5.24,17.08,10.65,24.37,1.17,1.58,1.06,2.35-.6,3.31-.25.15-.5.29-.73.43-.63.38-1.19.73-1.7,1.05-.58.38-1.09.71-1.54,1-.05.03-.09.06-.14.09-.39.25-.73.47-1.03.64-2.34,1.36-2.32.16-5-5.88-1.22-2.77-2.31-5.56-3.25-8.36-.02-.06-.05-.13-.07-.19-.01-.03-.02-.06-.03-.08-6.71-20.03-6.49-40.62-1.88-58.8,11.13,5.4,21.94,11.47,33.61,15.73,8.7,3.18,17.55,5.7,26.84,6.32,7.79.51,15.31-.73,22.1-4.74,18.57-10.97,38.62-13.2,59.57-10.39,6.4.86,12.79,1.82,19.2,2.59,1.26.15,2.51.19,3.75.15h0c1.24.04,2.5,0,3.76-.15,6.41-.77,12.79-1.73,19.19-2.59,20.95-2.81,41-.58,59.58,10.39,6.79,4.01,14.31,5.25,22.1,4.74,9.28-.62,18.13-3.14,26.84-6.32,11.66-4.26,22.48-10.33,33.61-15.73,4.6,18.18,4.83,38.77-1.88,58.8-.01.02-.02.05-.03.08-.02.07-.04.13-.07.19-.94,2.8-2.03,5.59-3.25,8.36-2.68,6.04-2.66,7.24-4.99,5.88-.3-.17-.65-.39-1.03-.64-.05-.03-.1-.06-.14-.09-.44-.29-.96-.63-1.55-1-.5-.32-1.06-.67-1.69-1.05-.23-.14-.48-.28-.73-.43-1.66-.96-1.76-1.73-.59-3.31,5.41-7.29,8.6-15.62,10.66-24.37,1.34-5.74,2.66-11.53,2.67-18.22-.33.37-.66.74-1,1.09-.34.35-.68.69-1.03,1.02-.34.33-.69.64-1.04.94-.28.24-.57.48-.86.71-.54.43-1.09.83-1.64,1.21-3.89,2.64-8.14,3.97-12.91,4.21.8,2.18,2.51,3.64,4.07,5.22.35.37.71.74,1.03,1.12,1.36,1.62,1.2,2.44-.38,3.71-5.14,4.13-10.32,8.21-15.69,12.04-1.79,1.27-3.03,1.33-4.83-.02-8.67-6.47-24.16-18.34-28.73-21.77,1.22,2.12,2.14,3.83,3.16,5.48,13.14,21.2,30.02,39.13,49.3,54.73,12.46,10.09,24.51,20.45,34.22,33.29,8.45,11.17,15.96,22.89,20.73,36.18,0,0-2.48-.55-5.87-1.13-3.49-.59-7.94-1.21-11.63-1.27,18.66,26.47,23.53,56.23,23.67,88.34-5.1-5.94-9.05-11.5-14.48-16.15Z"/>
      <path class="st0" d="M524.5,242.99c-7.28-4.46-13.95-8.55-21.54-13.19,4.96,11.12,8.16,21.78,9.91,32.8,1.77,11.14,2.52,22.33.53,34.32-5.32-7.24-10.19-13.86-15.45-21.01-2.72,13.56-5.12,26.48-10.1,39.69-2.44-12.85-10.22-16.53-21.94-14.1,2.54-5.68,4-10.98,4.37-16.54.42-10.37-2.09-19.91-8.02-28.5-4.86-5.54-10.59-9.78-17.71-11.96-1.12-.34-1.69-.91-2.06-2.07-7.12-22.45-37.15-20.68-40.44-17.08,20.65.04,27.27,16.87,27.19,16.86-4.41-.42-8.05.45-10.47.97,6.03,1.2,12.91,3.26,18.41,6.05,11.38,5.26,13.32,15.61,4.54,24.43-4.14,4.16-9.18,7.03-14.43,9.54-2.51,1.2-5.05,2.34-8.29,3.83,9.68.12,22.81-6.44,37.7-18.48.75,2.05,1.4,4.01,1.54,6.14.51,7.9-3.66,13.2-9.72,17.37-8.19,5.63-17.58,8.15-27.14,10.16-2.19.46-4.42.71-6.61,1.21-.12.03-.24.05-.37.08-1.86.33-3.94.07-5.36,1.78,13.39.7,26.5-1.11,40.12-4.46.98-.24,1.96-.48,2.93-.74.98-.25,1.96-.52,2.95-.79-5.12,7.99-11.3,12.69-18.88,15.53-10.71,4.02-21.84,4.56-33.12,3.61-2.54-.22-5.08-.32-7.62-.48,9.54,5.05,19.88,6.35,30.3,7.43-.28,1-1.1,1.14-1.76,1.5-11.03,6.03-22.37,5.86-33.98,1.88-8.41-2.89-16.52-6.9-25.84-6.97.26-1.41.5-2.55.68-3.71,2.58-16.37,10.69-28.62,26.12-35.59.95-.43,1.85-.92,2.71-1.45,1.72-1.08,3.26-2.35,4.68-3.77,1.61-1.62,3.04-3.44,4.37-5.37.04-.05.07-.1.11-.15,2.34-5.75,2.95-11.36,2.32-16.9-.04-.36-.09-.73-.14-1.1-.33-2.3-.87-4.59-1.58-6.87-.2-.65-.42-1.29-.65-1.94-.58-1.62-1.23-3.22-1.96-4.83-.35,3.44-.19,6.86-.39,10.27-.4,6.82-2.16,13.22-6.37,18.8-1.26,1.67-2.17,2.22-3.84.31-2.16-2.46-4.04-6.42-6.95-6.64-2.8-.22-5.95,2.37-8.72,4.08-4.86,3-9.68,4.42-14.49,4.4h0c-4.81.03-9.63-1.39-14.48-4.4-2.77-1.71-5.93-4.3-8.73-4.08-2.92.23-4.8,4.18-6.95,6.64-1.67,1.91-2.58,1.35-3.84-.31-4.2-5.58-5.96-11.97-6.37-18.8-.2-3.4-.03-6.83-.39-10.27-.72,1.61-1.38,3.21-1.96,4.83-.23.64-.44,1.29-.65,1.94-.71,2.28-1.25,4.57-1.58,6.87-.06.37-.1.74-.14,1.1-.63,5.54-.03,11.15,2.32,16.9,1.34,1.99,2.81,3.85,4.47,5.52,1.41,1.43,2.97,2.7,4.68,3.77.86.53,1.76,1.02,2.7,1.45,15.43,6.97,23.55,19.22,26.13,35.59.18,1.16.42,2.3.68,3.71-9.32.07-17.43,4.09-25.84,6.97-11.61,3.98-22.95,4.14-33.98-1.88-.66-.36-1.5-.5-1.77-1.5,10.42-1.09,20.75-2.39,30.3-7.43-2.54.16-5.09.26-7.62.48-11.28.95-22.42.41-33.12-3.61-7.57-2.84-13.76-7.54-18.88-15.53.99.27,1.97.53,2.95.79.98.26,1.95.5,2.93.74,13.63,3.35,26.74,5.15,40.13,4.46-1.42-1.71-3.49-1.46-5.36-1.78-.12-.02-.25-.05-.37-.08-2.18-.5-4.42-.75-6.61-1.21-9.57-2-18.95-4.52-27.14-10.16-6.06-4.17-10.23-9.47-9.72-17.37.14-2.13.8-4.08,1.54-6.14,14.89,12.04,28.02,18.6,37.7,18.48-3.23-1.49-5.78-2.62-8.29-3.83-5.25-2.51-10.29-5.39-14.43-9.54-8.79-8.82-6.84-19.17,4.54-24.43,5.51-2.79,12.38-4.85,18.41-6.05-2.42-.52-6.06-1.39-10.48-.97-.08,0,6.55-16.83,27.19-16.86-3.3-3.6-33.32-5.37-40.44,17.08-.37,1.16-.93,1.72-2.06,2.07-7.12,2.18-12.85,6.42-17.7,11.96-5.93,8.59-8.44,18.13-8.02,28.5.37,5.57,1.84,10.86,4.37,16.54-11.73-2.43-19.51,1.24-21.94,14.1-4.98-13.2-7.38-26.13-10.1-39.69-5.25,7.15-10.12,13.77-15.44,21.01-1.99-11.98-1.24-23.17.53-34.32,1.75-11.03,4.95-21.68,9.91-32.8-7.59,4.65-14.26,8.73-21.54,13.19,10.43-36.61,27.8-64.58,29.21-66.57-.03.03-.06.07-.09.1-22.06,24.84-42.54,64.48-47.01,93.28,6.26-6.59,13.39-12.63,21.37-17.45-5.86,23.74-2.64,46.89,1.64,70.85,5.01-7.92,9.29-15.31,15.5-22.31,4.02,22.44,12.06,42.62,25.5,60.49-.61-6.31-1.51-12.52-1.29-18.83.13-3.58.6-7.11,1.76-10.48,2.65-7.74,8.7-10.09,15.93-6.22,6.66,3.56,11.01,9.35,14.63,15.72,7.05,12.42,9.63,24.59,9.61,44.48,2.67-.53,4.79-2.13,6.6-3.74,2.94-2.62,4.33-1.28,5.96,1.34,4.34,7.04,6.14,14.78,6.51,22.9.37,7.91.41,15.84.85,23.75.41,7.2,2.86,13.57,8.25,18.68,4.4,4.17,8.86,8.22,14.54,11.84,0-1.64.24-2.81-.04-3.83-1.29-4.73,1.16-6.33,5.29-7.53,10.08-2.94,20-4.25,29.77-3.96h0c9.77-.29,19.69,1.02,29.78,3.96,4.12,1.2,6.58,2.79,5.28,7.53-.28,1.02-.04,2.19-.04,3.83,5.68-3.62,10.14-7.67,14.53-11.84,5.39-5.1,7.85-11.48,8.25-18.68.44-7.91.48-15.84.85-23.75.39-8.12,2.17-15.87,6.52-22.9,1.62-2.62,3.01-3.96,5.95-1.34,1.81,1.62,3.93,3.21,6.6,3.74-.01-19.88,2.55-32.06,9.61-44.48,3.61-6.37,7.97-12.16,14.63-15.72,7.24-3.87,13.28-1.52,15.93,6.22,1.16,3.37,1.63,6.9,1.75,10.48.23,6.31-.67,12.53-1.29,18.83,13.45-17.87,21.49-38.05,25.51-60.49,6.21,7,10.48,14.39,15.5,22.31,4.27-23.95,7.5-47.11,1.64-70.85,7.98,4.82,15.11,10.86,21.36,17.45-4.46-28.8-24.94-68.44-47-93.28-.03-.03-.06-.07-.1-.1,1.41,1.99,18.78,29.97,29.21,66.57ZM334.26,339.58c.6-3.6,2.75-5.08,6.15-4.43,6.54,1.24,13.06,1.87,19.59,1.87h0c6.53,0,13.06-.62,19.59-1.87,3.39-.65,5.54.83,6.15,4.43.72,4.28-.31,8.29-1.45,12.61-2.68-2.09-4.11-4.75-5.31-7.49-.9-2.05-1.84-2.62-3.53-.83-.72.77-2.17,2.67-2.17,2.67,0,0-1.5-1.67-2.27-2.68-1.37-1.77-3.01-2.1-4.59-.3-.68.78-2.11,2.78-2.11,2.78,0,0-2.68-3.78-4.26-3.73h-.09c-1.58-.05-4.25,3.73-4.25,3.73,0,0-1.43-2-2.11-2.78-1.58-1.8-3.23-1.47-4.59.3-.77,1-2.27,2.68-2.27,2.68,0,0-1.45-1.89-2.17-2.67-1.68-1.79-2.63-1.23-3.53.83-1.2,2.74-2.63,5.41-5.32,7.49-1.13-4.33-2.17-8.33-1.45-12.61ZM381.26,389.15c-1.15,9.8-4.07,18.85-11.61,25.68-2.98,2.7-6.38,4.08-9.64,4.14h0c-3.27-.06-6.65-1.44-9.64-4.14-7.54-6.83-10.47-15.89-11.61-25.68-.18-1.51.51-2.13,2.01-2.19,4.33-.18,7.02-.83,11.39-.73,2.75.06,3.72.86,4.11,3.81.68,5.17,1.35,10.54,3.71,16.45l.02.07.03-.07c2.37-5.91,3.04-11.29,3.71-16.45.39-2.95,1.37-3.75,4.11-3.81,4.37-.1,7.06.55,11.4.73,1.51.06,2.19.69,2.01,2.19ZM318.98,348.55c-3.84,12.65-5.6,25.6-5.16,38.91-8.05-13.32-13.12-27.42-13.15-43.13,0-4.1,1.7-5.6,5.39-6.07,2.56-.32,5.02.07,7.43.64,6.96,1.64,7.54,2.89,5.48,9.65ZM337.72,438.29c-1.28,2.69-3.65,4.24-6.67,4.13-3.81-.15-5.9-2.69-7.03-6.01-4.37-12.78-2.74-25.32,1.7-38.74.93,3.82,1.58,6.72,2.36,9.61,2.01,7.55,4.9,14.67,9.74,20.93,2.53,3.27,1.45,6.8-.1,10.08ZM375,433.3c-.5,2-2.15,1.43-3.57,1.34-.33-.02-.65-.04-.98-.07-.31-.02-.61-.05-.92-.07-.33-.03-.66-.06-.99-.09-2.84-.24-5.68-.52-8.53-.55h0c-2.84.03-5.68.31-8.52.55-.33.03-.66.06-1,.09-.31.02-.62.05-.92.07-.33.02-.65.05-.98.07-1.42.09-3.08.66-3.57-1.34-.57-2.3.53-4.02,2.23-5.51.51-.45,1.36-1.16,1.36-1.16,0,0,3.92,3.72,4.13,3.69.61-.07,2.33-2.25,2.33-2.25,0,0,2.65-.47,4.94-.36h0c2.31-.11,4.94.36,4.94.36,0,0,1.73,2.17,2.33,2.25.22.03,4.14-3.69,4.14-3.69,0,0,.85.71,1.35,1.16,1.7,1.49,2.8,3.21,2.23,5.51ZM395.98,436.41c-1.13,3.32-3.23,5.86-7.03,6.01-3.02.12-5.4-1.44-6.67-4.13-1.56-3.28-2.62-6.81-.1-10.08,4.84-6.26,7.73-13.38,9.75-20.93.77-2.89,1.42-5.79,2.35-9.61,4.45,13.41,6.08,25.96,1.7,38.74ZM406.18,387.46c.44-13.31-1.32-26.25-5.16-38.91-2.05-6.75-1.47-8,5.49-9.65,2.41-.57,4.87-.96,7.43-.64,3.69.47,5.4,1.97,5.39,6.07-.02,15.71-5.1,29.81-13.14,43.13Z"/>
      <path class="st0" d="M278.94,126.1c8.89-.91,17.83-.95,26.73-.54,13.21.61,26.24,2.37,38.47,7.89,2.63,1.18,6.62,2.18,7.04,4.51.43,2.33-3.81,3.27-5.89,4.95-5.24,4.23-8.19,7.32-10.8,12.29,2.94-1.9,5.31-3.4,7.63-4.95,5.94-3.96,11.9-5.98,17.86-5.96h0c5.97-.02,11.92,1.99,17.86,5.96,2.33,1.55,4.69,3.05,7.63,4.95-2.61-4.97-5.55-8.06-10.8-12.29-2.08-1.68-6.32-2.62-5.89-4.95.43-2.33,4.41-3.32,7.04-4.51,12.23-5.52,25.26-7.28,38.47-7.89,8.91-.41,17.84-.37,26.73.54-25.84-12.42-52.02-10.94-78.96-1.44.81-1.31,1.19-1.99,1.64-2.62,5.22-7.28,12.91-10.72,21.1-13.1,16.58-4.82,33.52-5.55,50.62-3.76-24.01-10.35-48.34-8.73-72.94-2.15,16.45-14.69,36.72-12.4,57.26-12.52-4.55-2.34-8.58-3.74-12.79-4.59-14.87-2.97-29.38-.76-43.74,3.25-1.11.31-2.15.67-3.25.64h0c-1.1.04-2.14-.33-3.25-.64-14.36-4.01-28.87-6.22-43.74-3.25-4.21.84-8.23,2.25-12.78,4.59,20.54.12,40.8-2.16,57.25,12.52-24.59-6.59-48.92-8.2-72.94,2.15,17.1-1.78,34.04-1.06,50.63,3.76,8.19,2.38,15.88,5.82,21.1,13.1.45.63.82,1.31,1.64,2.62-26.93-9.5-53.12-10.98-78.96,1.44Z"/>
    </g>
  </g>
  <polyline class="st0" points="686.15 547.32 657.26 582.78 627.48 559.17"/>
  <polygon class="st0" points="623.59 672.34 84.81 672.34 84.81 563.32 623.59 565.05 623.59 672.34"/>
  <path class="st0" d="M565.03,563.3c0-26.65,21.75-41.84,56.3-41.84h28.82v-11.46H112.81v99.31h514.07c-19.99-7.69-61.85-8.88-61.85-46Z"/>
  <path d="M607.47,559.35c0,11.4,22.72,12.62,42.68,20.3v-25.76c-12.1-.74-22.86-2.04-31.23-2.04-6.91,0-11.45,2.37-11.45,7.5Z"/>
  <g>
    <path class="st1" d="M650.15,579.66c-19.96-7.68-42.68-8.9-42.68-20.3,0-5.13,4.54-7.5,11.45-7.5,8.37,0,19.13,1.31,31.23,2.04,4.74.29,9.67.49,14.76.49l26.67-32.93h-70.24c-34.54,0-56.3,15.2-56.3,41.84,0,37.11,41.86,38.31,61.85,46,6.27,2.41,10.39,5.46,10.39,10.45,0,6.31-7.07,8.41-15.75,8.41h-49.98l-15.9,32.16c22.57,0,43.32.12,66.81.12,30.99,0,57.25-13.45,57.25-42.86,0-21.93-13.94-31.91-29.56-37.92Z"/>
    <path class="st3" d="M650.15,579.66c-19.96-7.68-42.68-8.9-42.68-20.3,0-5.13,4.54-7.5,11.45-7.5,8.37,0,19.13,1.31,31.23,2.04,4.74.29,9.67.49,14.76.49l26.67-32.93h-70.24c-34.54,0-56.3,15.2-56.3,41.84,0,37.11,41.86,38.31,61.85,46,6.27,2.41,10.39,5.46,10.39,10.45,0,6.31-7.07,8.41-15.75,8.41h-49.98l-15.9,32.16c22.57,0,43.32.12,66.81.12,30.99,0,57.25-13.45,57.25-42.86,0-21.93-13.94-31.91-29.56-37.92Z"/>
  </g>
  <path class="st3" d="M500.24,633.28h-15.79v27.14h-29.87v-100.65h46.95c26.99,0,42.5,12.92,42.5,35.75,0,14.93-6.03,25.84-16.94,32.02l20.39,32.88h-33.88l-13.35-27.14ZM501.53,610.31c8.9,0,14.07-4.88,14.07-13.93s-5.17-13.64-14.07-13.64h-17.08v27.57h17.08Z"/>
  <path class="st3" d="M382.8,582.14v15.8h47.52v22.97h-47.52v15.94h53.84v23.57l-83.7-.6v-100.65h82.27v22.97h-52.41Z"/>
  <path class="st3" d="M334.57,607.7v40.49c-10.91,7.47-28.84,12.1-43.2,12.1-31.16,0-54-21.14-54-50.72s23.69-51.25,56.14-51.25c15.36,0,31.87,5.89,42.5,15.22l-16.94,20.53c-6.89-6.6-16.94-10.91-25.7-10.91-14.5,0-25.41,11.34-25.41,26.42s11.06,26.56,25.7,26.56c4.17,0,9.76-1.43,15.22-3.88v-24.55h25.7Z"/>
  <path class="st3" d="M192.72,660.28v-100.65h29.86v100.65h-29.86Z"/>
  <g>
    <path class="st1" d="M137.86,554.69v105.6h-41.25v-105.6h-40.07l-27.15-32.77h148.74v32.77h-40.27Z"/>
    <path class="st3" d="M137.86,554.69v105.6h-41.25v-105.6h-40.07l-27.15-32.77h148.74v32.77h-40.27Z"/>
  </g>
  <polyline class="st0" points="712.15 514.99 717.56 508.66 2.44 508.66 8.1 514.99"/>
  <g>
    <path class="st2" d="M216.61,518.78l-.05,6.57h-15.3v7.02h14.13v6.57h-14.13v11.38h-8.23v-31.54h23.58Z"/>
    <path class="st2" d="M244.92,544.74h-13.63l-2.2,5.58h-8.46l13.54-31.54h8.46l13.23,31.54h-8.77l-2.16-5.58ZM242.49,538.44l-4.32-11.25-4.41,11.25h8.73Z"/>
    <path class="st2" d="M282.76,550.32l-4.59-8.73h-6.12v8.73h-8.23v-31.54h14.17c8.37,0,13.14,4.05,13.14,11.07,0,4.77-1.98,8.28-5.62,10.17l6.57,10.3h-9.31ZM272.05,535.02h5.98c3.33,0,5.26-1.71,5.26-4.9s-1.93-4.77-5.26-4.77h-5.98v9.67Z"/>
    <path class="st2" d="M310.53,518.78l8.37,18.4,8.37-18.4h9v31.54h-7.29l-.04-19.98-7.33,16.83h-5.4l-7.33-16.83v19.98h-7.33v-31.54h9Z"/>
    <path class="st2" d="M355.75,518.78v31.54h-8.24v-31.54h8.24Z"/>
    <path class="st2" d="M374.25,518.78l14.31,18.99v-18.99h7.65v31.54h-7.2l-14.31-18.9v18.9h-7.7v-31.54h7.25Z"/>
    <path class="st2" d="M428.38,534.21h7.11v12.42c-3.38,2.34-8.73,4.05-13.14,4.05-9.63,0-16.87-6.93-16.87-16.11s7.42-16.02,17.41-16.02c4.72,0,9.72,1.8,12.96,4.68l-4.68,5.76c-2.25-2.12-5.44-3.46-8.32-3.46-5.08,0-8.91,3.92-8.91,9.04s3.87,9.09,9,9.09c1.58,0,3.55-.54,5.45-1.48v-7.96Z"/>
    <path class="st2" d="M470.37,518.78v6.79h-9.45v24.75h-8.23v-24.75h-9.36v-6.79h27.04Z"/>
    <path class="st2" d="M509.34,534.53c0,9.22-7.29,16.15-17.05,16.15s-17.05-6.93-17.05-16.15,7.29-15.97,17.05-15.97,17.05,6.84,17.05,15.97ZM483.69,534.57c0,5.13,4,9.09,8.69,9.09s8.5-3.96,8.5-9.09-3.78-9-8.5-9-8.69,3.87-8.69,9Z"/>
    <path class="st2" d="M525.81,518.78l14.31,18.99v-18.99h7.65v31.54h-7.2l-14.31-18.9v18.9h-7.7v-31.54h7.25Z"/>
  </g>
</svg>